<svg xmlns="http://www.w3.org/2000/svg" width="24.81" height="25.069" viewBox="0 0 24.81 25.069"><defs><style>.a{fill:#afbfdd;}</style></defs><path class="a" d="M16.552,11.908a1.229,1.229,0,1,1,1.223,1.205A1.2,1.2,0,0,1,16.552,11.908Zm.083,2.151h2.278v8.684H16.635Z" transform="translate(-5.375 -4.423)"/><path class="a" d="M15.78,5.062a10.608,10.608,0,0,1,7.592,3.176,10.934,10.934,0,0,1,0,15.343,10.662,10.662,0,0,1-15.184,0,10.934,10.934,0,0,1,0-15.343A10.608,10.608,0,0,1,15.78,5.062m0-1.687a12.535,12.535,0,1,0,12.4,12.535A12.468,12.468,0,0,0,15.78,3.375Z" transform="translate(-3.375 -3.375)"/></svg>