<svg xmlns="http://www.w3.org/2000/svg" width="30.586" height="17.842" viewBox="0 0 30.586 17.842"><defs><style>.a{fill:#fff;}</style></defs><g transform="translate(-4.5 -10.125)"><path class="a" d="M33.812,12.674H5.774A1.278,1.278,0,0,1,4.5,11.4h0a1.278,1.278,0,0,1,1.274-1.274H33.812A1.278,1.278,0,0,1,35.086,11.4h0A1.278,1.278,0,0,1,33.812,12.674Z"/><path class="a" d="M33.812,19.424H5.774A1.278,1.278,0,0,1,4.5,18.149h0a1.278,1.278,0,0,1,1.274-1.274H33.812a1.278,1.278,0,0,1,1.274,1.274h0A1.278,1.278,0,0,1,33.812,19.424Z" transform="translate(0 0.896)"/><path class="a" d="M33.812,26.174H5.774A1.278,1.278,0,0,1,4.5,24.9h0a1.278,1.278,0,0,1,1.274-1.274H33.812A1.278,1.278,0,0,1,35.086,24.9h0A1.278,1.278,0,0,1,33.812,26.174Z" transform="translate(0 1.793)"/></g></svg>