<svg xmlns="http://www.w3.org/2000/svg" width="16.448" height="13.921" viewBox="0 0 16.448 13.921"><defs><style>.a{fill:#fff;}</style></defs><g transform="translate(0)"><path class="a" d="M13.815,17.173a.555.555,0,0,0-.554.554.714.714,0,0,1-.712.712H5.194a.714.714,0,0,1-.712-.712V7.444a.714.714,0,0,1,.712-.712H12.55a.714.714,0,0,1,.712.712.554.554,0,0,0,1.107,0A1.819,1.819,0,0,0,12.55,5.625H5.194A1.819,1.819,0,0,0,3.375,7.444V17.726a1.819,1.819,0,0,0,1.819,1.819H12.55a1.819,1.819,0,0,0,1.819-1.819A.555.555,0,0,0,13.815,17.173Z" transform="translate(-3.375 -5.625)"/><path class="a" d="M19.3,10.99a.55.55,0,0,0-.392-.162.541.541,0,0,0-.392.162.551.551,0,0,0,0,.783L21.1,14.312H10.96a.554.554,0,1,0,0,1.107H21.108l-2.515,2.535a.559.559,0,0,0,0,.783l0,0a.572.572,0,0,0,.388.154.534.534,0,0,0,.392-.162l3.267-3.259a.777.777,0,0,0,0-1.155Z" transform="translate(-6.451 -7.902)"/></g></svg>