<svg xmlns="http://www.w3.org/2000/svg" width="58.912" height="58.912" viewBox="0 0 58.912 58.912"><defs><style>.a{fill:#fff;}</style></defs><path class="a" d="M2.957,13.53A2.946,2.946,0,0,1,.395,9.112L4.813,1.483A2.956,2.956,0,1,1,9.938,4.429L5.52,12.058A2.946,2.946,0,0,1,2.957,13.53Z" transform="translate(13.244 41.817)"/><path class="a" d="M2.957,13.53A2.946,2.946,0,0,1,.395,9.112L4.813,1.483A2.956,2.956,0,1,1,9.938,4.429L5.52,12.058A2.946,2.946,0,0,1,2.957,13.53Z" transform="translate(35.336 3.554)"/><path class="a" d="M2.966,10.32A2.946,2.946,0,0,1,1.494,4.811L9.123.393a2.956,2.956,0,0,1,2.946,5.125L4.439,9.937A2.946,2.946,0,0,1,2.966,10.32Z" transform="translate(3.543 35.337)"/><path class="a" d="M2.966,10.32A2.946,2.946,0,0,1,1.494,4.812L9.123.394a2.956,2.956,0,0,1,2.946,5.125L4.439,9.937a2.946,2.946,0,0,1-1.473.383Z" transform="translate(41.807 13.245)"/><path class="a" d="M11.782,5.891H2.946A2.946,2.946,0,0,1,2.946,0h8.837a2.946,2.946,0,0,1,0,5.891Z" transform="translate(0 26.51)"/><path class="a" d="M11.782,5.891H2.946A2.946,2.946,0,0,1,2.946,0h8.837a2.946,2.946,0,0,1,0,5.891Z" transform="translate(44.184 26.51)"/><path class="a" d="M10.585,10.32a2.946,2.946,0,0,1-1.473-.383L1.483,5.519A2.956,2.956,0,1,1,4.429.394l7.629,4.418a2.946,2.946,0,0,1-1.473,5.508Z" transform="translate(3.554 13.245)"/><path class="a" d="M10.585,10.32a2.946,2.946,0,0,1-1.473-.383L1.483,5.519A2.956,2.956,0,1,1,4.429.394l7.629,4.418a2.946,2.946,0,0,1-1.473,5.508Z" transform="translate(41.817 35.337)"/><path class="a" d="M7.374,13.53a2.946,2.946,0,0,1-2.563-1.473L.393,4.429A2.956,2.956,0,0,1,5.518,1.483L9.937,9.112A2.946,2.946,0,0,1,7.374,13.53Z" transform="translate(13.245 3.554)"/><path class="a" d="M7.374,13.53a2.946,2.946,0,0,1-2.563-1.473L.393,4.429A2.956,2.956,0,1,1,5.518,1.483L9.937,9.112A2.946,2.946,0,0,1,7.374,13.53Z" transform="translate(35.337 41.817)"/><path class="a" d="M2.946,14.728A2.946,2.946,0,0,1,0,11.782V2.946a2.946,2.946,0,0,1,5.891,0v8.837A2.946,2.946,0,0,1,2.946,14.728Z" transform="translate(26.51)"/><path class="a" d="M2.946,14.728A2.946,2.946,0,0,1,0,11.782V2.946a2.946,2.946,0,0,1,5.891,0v8.837A2.946,2.946,0,0,1,2.946,14.728Z" transform="translate(26.51 44.184)"/></svg>
